# xmcd CD database file
#
# Track frame offsets:
#	150
#	13414
#	30329
#	44604
#	55008
#	70352
#	82778
#	100147
#	119262
#	128120
#	150956
#	166064
#	182381
#	195148
#	203936
#	224142
#
# Disc length: 3093 seconds
#
# Revision: 0
# Processed by: cddbd v1.5.2PL0 Copyright (c) Steve Scherf et al.
# Submitted via: CDex 1.70beta2
#
DISCID=cc0c1310
DTITLE=John White - Banjo Blues
DYEAR=2007
DGENRE=Blues
TTITLE0=Mississippi Heavy Water Blues
TTITLE1=Ain't But One Thing
TTITLE2=Church Stomp
TTITLE3=Christmas Eve
TTITLE4=Kassie Jones
TTITLE5=Ditch Water Rag
TTITLE6=Wake Up Mama (Statesboro Blues)
TTITLE7=21st Century Shake That thing
TTITLE8=Cindy
TTITLE9=Did You Ever Wake Up
TTITLE10=Round And Round
TTITLE11=Told You baby
TTITLE12=Rooster Do Crow
TTITLE13=Apple Blossom
TTITLE14=Crazy About You (Can't Hold Out Much Longer)
TTITLE15=Something In The Air
EXTD=YEAR: 2007
EXTT0=
EXTT1=
EXTT2=
EXTT3=
EXTT4=
EXTT5=
EXTT6=
EXTT7=
EXTT8=
EXTT9=
EXTT10=
EXTT11=
EXTT12=
EXTT13=
EXTT14=
EXTT15=
PLAYORDER=
